<svg xmlns="http://www.w3.org/2000/svg" width="1348" height="1080" viewBox="0 0 1348 1080" fill="none">
<rect width="1347.3" height="1080" rx="21" fill="#493ACA"/>
<path d="M386.585 615.957L470.8 375.65H581.701L392.083 868.602H281.182L327.715 747.376L184.63 375.516H302.37L386.585 615.957Z" fill="white"/>
<path d="M622.47 579.616V375.516H732.03V579.616C732.03 597.452 737.662 611.666 748.792 622.394C759.923 633.122 774.942 638.486 793.582 638.486C811.417 638.486 826.168 633.122 837.701 622.394C849.368 611.666 855.134 597.452 855.134 579.616V375.516H964.694V579.616C964.694 626.686 948.602 664.904 916.418 694.272C884.234 723.774 843.199 738.391 793.448 738.391C742.758 738.391 701.589 723.64 669.807 694.272C638.294 664.904 622.47 626.686 622.47 579.616Z" fill="white"/>
<path d="M988.832 875.442V779.56C1013.51 779.56 1029.33 775.537 1036.44 767.625C1043.54 759.579 1047.03 743.085 1047.03 718.008V375.516H1156.59V717.874C1156.59 828.909 1100.67 881.342 988.832 875.442Z" fill="white"/>
<path d="M1035.34 267.444C1035.34 249.877 1041.64 234.857 1054.25 222.252C1066.85 209.646 1081.87 203.344 1099.44 203.344C1117.01 203.344 1132.03 209.646 1144.63 222.252C1157.24 234.857 1163.54 249.877 1163.54 267.444C1163.54 284.609 1157.24 299.494 1144.63 312.367C1132.03 325.241 1117.01 331.678 1099.44 331.678C1081.87 331.678 1066.85 325.241 1054.25 312.367C1041.64 299.494 1035.34 284.609 1035.34 267.444Z" fill="#FFA41B"/>
</svg>
